<svg xmlns="http://www.w3.org/2000/svg" width="1000" height="1200" viewBox="0 0 1000 1200" role="img" aria-labelledby="title">
  <title id="title">Arabic doctor report preview</title>
  <defs>
    <filter id="shadow" x="-20%" y="-20%" width="140%" height="150%"><feDropShadow dx="0" dy="32" stdDeviation="34" flood-color="#173140" flood-opacity=".13"/></filter>
  </defs>
  <rect width="1000" height="1200" fill="none"/>
  <g transform="translate(150 80)" filter="url(#shadow)">
    <rect width="700" height="980" rx="42" fill="#FFFDF8"/>
    <path d="M642 0C668 5 695 31 700 58V0Z" fill="#FBE7DD"/>
    <rect x="642" y="36" width="5" height="884" rx="3" fill="#8FC4DF" opacity=".55"/>
    <text x="612" y="110" direction="rtl" text-anchor="end" font-family="Arial, sans-serif" font-size="28" font-weight="900" fill="#2F7FA9">Babycare</text>
    <text x="612" y="160" direction="rtl" text-anchor="end" font-family="Arial, sans-serif" font-size="42" font-weight="900" fill="#0E2A3A">ملخص متابعة للطبيب</text>
    <path d="M92 220H610M92 270H520M92 320H570" stroke="#0E2A3A" stroke-width="14" stroke-linecap="round" opacity=".08"/>
    <g font-family="Arial, sans-serif" direction="rtl">
      <text x="610" y="430" text-anchor="end" font-size="24" font-weight="800" fill="#667987">الطفل</text>
      <text x="92" y="430" text-anchor="start" font-size="28" font-weight="800" fill="#0E2A3A">ليان، 4 شهور</text>
      <text x="610" y="518" text-anchor="end" font-size="24" font-weight="800" fill="#667987">المتابعة</text>
      <text x="92" y="518" text-anchor="start" font-size="28" font-weight="800" fill="#0E2A3A">مراقبة قريبة</text>
      <text x="610" y="606" text-anchor="end" font-size="24" font-weight="800" fill="#667987">التوصية</text>
      <text x="92" y="606" text-anchor="start" font-size="28" font-weight="800" fill="#0E2A3A">قياس الحرارة خلال ساعتين</text>
      <text x="610" y="710" text-anchor="end" font-size="24" font-weight="800" fill="#667987">ملاحظات الأم</text>
    </g>
    <path d="M92 755H520M92 808H560M92 861H425" stroke="#8FC4DF" stroke-width="12" stroke-linecap="round" opacity=".28"/>
    <text x="610" y="936" direction="rtl" text-anchor="end" font-family="Arial, sans-serif" font-size="22" font-weight="700" fill="#667987">ملخص منظم وليس بديلاً عن الاستشارة الطبية.</text>
  </g>
</svg>
